HIERARCHY
ROOT root
{
	OFFSET 0.000000 0.000000 0.000000
	CHANNELS 6 Xposition Yposition Zposition Zrotation Yrotation Xrotation
	JOINT lhip
	{
		OFFSET 0.058581 -0.082280 -0.017664
		CHANNELS 3 Zrotation Yrotation Xrotation
		JOINT lknee
		{
			OFFSET 0.043451 -0.386469 0.008037
			CHANNELS 3 Zrotation Yrotation Xrotation
			JOINT lankle
			{
				OFFSET -0.014790 -0.426874 -0.037428
				CHANNELS 3 Zrotation Yrotation Xrotation
				JOINT ltoe
				{
					OFFSET 0.041054 -0.060286 0.122042
					CHANNELS 3 Zrotation Yrotation Xrotation
					End Site
					{
						OFFSET 0.000000 0.000000 0.000000
					}
				}
			}
		}
	}
	JOINT rhip
	{
		OFFSET -0.060310 -0.090513 -0.013543
		CHANNELS 3 Zrotation Yrotation Xrotation
		JOINT rknee
		{
			OFFSET -0.043257 -0.383688 -0.004843
			CHANNELS 3 Zrotation Yrotation Xrotation
			JOINT rankle
			{
				OFFSET 0.019056 -0.420046 -0.034562
				CHANNELS 3 Zrotation Yrotation Xrotation
				JOINT rtoe
				{
					OFFSET -0.034840 -0.062106 0.130323
					CHANNELS 3 Zrotation Yrotation Xrotation
					End Site
					{
						OFFSET 0.000000 0.000000 0.000000
					}
				}
			}
		}
	}
	JOINT lowerback
	{
		OFFSET 0.004439 0.124404 -0.038385
		CHANNELS 3 Zrotation Yrotation Xrotation
		JOINT upperback
		{
			OFFSET 0.004488 0.137956 0.026820
			CHANNELS 3 Zrotation Yrotation Xrotation
			JOINT chest
			{
				OFFSET -0.002265 0.056032 0.002855
				CHANNELS 3 Zrotation Yrotation Xrotation
				JOINT lowerneck
				{
					OFFSET -0.013390 0.211636 -0.033468
					CHANNELS 3 Zrotation Yrotation Xrotation
					JOINT upperneck
					{
						OFFSET 0.010113 0.088937 0.050410
						CHANNELS 3 Zrotation Yrotation Xrotation
						End Site
						{
							OFFSET 0.000000 0.000000 0.000000
						}
					}
				}
				JOINT lclavicle
				{
					OFFSET 0.071702 0.114000 -0.018898
					CHANNELS 3 Zrotation Yrotation Xrotation
					JOINT lshoulder
					{
						OFFSET 0.122921 0.045205 -0.019046
						CHANNELS 3 Zrotation Yrotation Xrotation
						JOINT lelbow
						{
							OFFSET 0.255332 -0.015649 -0.022946
							CHANNELS 3 Zrotation Yrotation Xrotation
							JOINT lwrist
							{
								OFFSET 0.265709 0.012698 -0.007375
								CHANNELS 3 Zrotation Yrotation Xrotation
								End Site
								{
									OFFSET 0.000000 0.000000 0.000000
								}
							}
						}
					}
				}
				JOINT rclavicle
				{
					OFFSET -0.082954 0.112472 -0.023707
					CHANNELS 3 Zrotation Yrotation Xrotation
					JOINT rshoulder
					{
						OFFSET -0.113228 0.046853 -0.008472
						CHANNELS 3 Zrotation Yrotation Xrotation
						JOINT relbow
						{
							OFFSET -0.260127 -0.014369 -0.031269
							CHANNELS 3 Zrotation Yrotation Xrotation
							JOINT rwrist
							{
								OFFSET -0.269108 0.006794 -0.006027
								CHANNELS 3 Zrotation Yrotation Xrotation
								End Site
								{
									OFFSET 0.000000 0.000000 0.000000
								}
							}
						}
					}
				}
			}
		}
	}
}
MOTION
Frames: 11
Frame Time: 0.033333
-2.508173 0.222463 0.984016 85.407731 -0.676318 84.267613 4.151175 -0.695350 -17.553146 -3.167871 12.772888 29.466335 0.667010 12.844338 -14.435165 0.000000 -0.000000 0.000000 -0.578557 -4.276981 11.855409 5.941863 3.924048 7.552053 -0.753276 0.530098 -21.807144 0.000000 -0.000000 0.000000 2.168996 6.944849 9.479280 2.874719 -1.478334 1.765827 -0.143855 -0.219968 1.581006 1.915884 4.695178 -8.219600 -6.855061 -2.525239 6.784837 -29.497979 8.825671 2.314590 -59.700306 7.518387 7.748572 10.454281 -33.346794 20.791554 -19.732881 -3.953084 -0.654141 29.775101 -0.020523 0.540935 51.662396 14.519348 10.225526 -22.343636 40.858471 -3.753972 9.821228 5.708174 -1.405206 
-2.460848 0.223495 0.975317 82.913606 -0.320822 84.184836 5.129070 0.651707 -18.119793 -3.984683 13.933622 16.509751 0.105456 12.102799 -14.108489 0.000000 -0.000000 0.000000 -2.412249 -5.327554 16.444370 6.995651 5.492284 6.051894 -0.399327 2.468267 -22.918154 0.000000 -0.000000 0.000000 2.635234 8.034268 8.424110 2.676948 -1.123193 3.220797 -0.231470 0.925718 1.304732 2.505886 5.305310 -6.965005 -7.300424 -3.070169 6.678114 -30.009499 9.366388 2.814778 -58.969412 9.735610 7.789927 9.857749 -33.685751 20.864956 -19.257076 -4.213000 0.674568 28.998034 1.527498 1.179449 49.919719 16.846356 9.919414 -23.180969 44.957115 -6.227711 8.331707 6.915877 -3.551134 
-2.412623 0.224520 0.963877 80.495286 0.283730 84.251713 5.753217 3.495235 -18.401006 -4.993493 12.334884 4.427766 -0.915335 9.957765 -13.523768 0.000000 -0.000000 0.000000 -4.384361 -6.555766 19.878686 7.805797 7.499436 6.579849 0.463796 5.176604 -23.962471 0.000000 -0.000000 0.000000 3.263409 8.370176 8.256900 2.285751 -0.249016 3.954628 -0.318177 2.410613 0.848587 2.854572 5.884637 -6.903820 -7.611455 -3.687860 6.633026 -30.335642 11.092835 0.761236 -57.849894 12.670862 7.801080 8.448172 -33.909568 22.508005 -18.762974 -4.199643 1.660454 28.530344 1.702083 0.676346 48.397216 19.022064 9.673999 -23.068633 48.924091 -6.275375 7.322966 7.688760 -4.324585 
-2.350802 0.227442 0.949466 78.481921 0.790613 85.054818 5.872091 6.367236 -19.978476 -6.833955 9.328411 -4.533366 -1.326246 8.416176 -11.641075 0.000000 -0.000000 0.000000 -6.318198 -6.693273 22.251635 8.128191 9.774419 8.929096 1.143989 6.695114 -24.851260 0.000000 -0.000000 0.000000 3.552840 8.466788 7.797841 2.033075 0.703553 3.634199 -0.565105 3.563677 0.603949 2.906668 6.425997 -7.047843 -7.668090 -3.370162 6.844695 -31.215728 13.196773 0.054391 -56.543880 14.641809 7.387746 7.996686 -33.709989 22.506833 -15.829116 -5.094259 2.458680 28.577272 1.609424 0.404736 46.015279 19.899622 9.825811 -22.886991 53.562790 -6.308832 3.058965 11.859349 -4.305669 
-2.311625 0.228532 0.942380 77.624629 0.735932 85.739393 6.223376 4.467202 -21.206356 -6.797482 9.986921 -4.583623 -1.340180 7.824214 -11.366981 0.000000 -0.000000 0.000000 -7.085821 -5.760103 22.986169 7.728155 10.745276 11.003808 1.956714 7.131834 -24.244920 0.000000 -0.000000 0.000000 2.862301 9.328719 7.269235 2.134469 1.047223 3.337357 -0.600464 3.805198 0.524528 3.290043 6.018141 -7.101825 -7.573441 -3.538948 6.342260 -31.492020 14.333604 -0.978755 -56.159540 15.490903 7.497892 8.809670 -32.843532 22.013975 -14.208211 -5.448745 2.701228 28.912558 0.661143 -0.375485 45.507489 19.829799 10.546130 -24.123407 55.447328 -6.799062 1.861383 12.957521 -4.760398 
-2.255016 0.229305 0.936378 77.536342 0.578044 85.938231 5.967168 1.350898 -22.639968 -5.936667 9.809152 1.520131 -0.879568 8.688601 -13.401906 0.000000 -0.000000 0.000000 -7.739284 -4.973169 24.241426 7.140152 12.761994 15.023423 3.909847 7.560185 -20.769998 0.000000 -0.000000 0.000000 1.658448 10.680192 6.354938 2.305592 0.939216 3.373439 -0.557823 3.478307 0.803648 3.813084 6.097875 -7.763077 -7.106319 -3.645575 6.183306 -31.354839 15.101453 -1.393052 -56.255425 16.284482 6.956940 9.937864 -32.505677 20.313125 -13.790410 -4.462856 2.123954 29.430286 -0.383048 -0.831206 45.647799 19.465417 10.867462 -26.676636 56.682828 -9.458056 3.708037 8.554959 -4.170588 
-2.197995 0.230441 0.932757 78.171931 0.366034 87.306078 5.652506 -1.600111 -25.662415 -4.782853 12.891795 9.590325 0.699531 8.838421 -6.561220 0.000000 -0.000000 0.000000 -7.095220 -3.205459 22.427910 7.083348 12.802267 21.559675 4.381212 6.614199 -14.511699 0.000000 -0.000000 0.000000 -0.681029 11.135334 3.284493 3.094298 0.632611 4.480644 -0.526993 3.403170 0.872683 3.919122 4.627910 -8.337225 -5.851062 -2.892769 5.593464 -31.476399 15.557953 -0.758815 -56.757545 15.605383 7.085029 12.354484 -31.396280 16.986044 -11.431930 -5.047565 -0.813402 30.297613 -1.552921 -0.520544 44.902355 17.190450 12.348094 -28.605494 57.677357 -10.097885 1.638262 12.253237 -4.322691 
-2.139258 0.233265 0.934506 79.581545 -0.773896 87.658515 4.490197 -4.256526 -27.069307 -5.587762 10.120068 17.503326 3.752520 11.405497 -5.939402 0.000000 -0.000000 0.000000 -7.051118 -1.866703 19.169096 6.571463 10.079492 31.197226 8.108246 4.672127 -0.987875 0.000000 -0.000000 0.000000 -3.436126 10.952681 3.877237 2.842942 0.594002 2.200861 -0.418283 2.733931 0.763004 4.542302 3.292032 -8.313020 -3.797183 -2.138251 5.673710 -31.044397 16.349138 -0.388325 -56.379016 15.602651 6.479658 13.725381 -31.036049 14.185536 -11.479098 -4.182506 -2.745730 31.126725 -3.388511 -1.015114 46.966061 14.017510 13.797470 -29.852222 56.455051 -11.782973 4.968134 9.005134 -4.646649 
-2.084862 0.236140 0.937954 82.252421 -1.354894 86.419369 3.033101 -7.561901 -25.819278 -6.353366 9.552530 23.841568 7.628877 12.514727 -10.219031 0.000000 -0.000000 0.000000 -6.296103 -1.111169 15.740122 6.570536 7.307930 42.197230 10.322452 1.775714 12.772183 0.000000 -0.000000 0.000000 -4.902212 10.097214 4.811321 2.890571 -0.208306 2.954186 -0.578929 2.023124 1.265718 4.704759 1.735884 -9.178840 -2.669819 -1.230403 4.403711 -31.081141 14.647140 0.571216 -57.208454 13.760055 5.970268 15.980205 -30.413126 11.205490 -12.658153 -4.095352 -4.353982 31.253715 -3.470901 -0.867845 49.275214 11.375779 14.522807 -31.931511 53.695962 -13.397378 8.267499 8.113225 -4.243424 
-2.018569 0.238963 0.943878 82.974828 -2.160566 86.391986 0.193224 -6.263101 -21.526708 -6.709747 8.361312 24.968861 9.382561 12.678284 -15.403127 0.000000 -0.000000 0.000000 -6.203458 -0.153709 7.134830 6.291255 4.475727 56.445427 9.272710 -5.398769 17.526170 0.000000 -0.000000 0.000000 -6.709932 7.986257 4.782693 2.502582 0.231613 3.700055 -0.591634 1.385893 0.520344 4.187398 0.909296 -8.770650 -1.062064 0.953664 4.267834 -30.376347 12.430682 1.839613 -58.755474 11.920822 1.595254 17.051239 -30.043078 10.607577 -16.155507 -3.815706 -1.121892 31.569848 -3.156018 0.292297 52.046347 7.223261 12.803035 -29.421836 50.868245 -13.210579 11.536229 6.968475 -1.963004 
-1.969769 0.241446 0.952946 84.708275 -1.746456 85.932754 -1.552099 -5.235018 -16.270842 -6.659789 5.277066 22.962954 9.484415 13.252451 -17.828849 0.000000 -0.000000 0.000000 -5.062627 -0.041555 0.617429 4.707025 1.032784 63.666524 5.696366 -7.313768 7.232235 0.000000 -0.000000 0.000000 -6.335181 5.761926 6.317045 2.180865 -0.071332 2.195473 -0.793080 0.664638 1.001681 4.395566 2.184406 -7.753045 -1.065036 0.809026 4.327217 -30.121585 11.146866 2.096191 -58.721490 9.901652 2.559784 17.370748 -30.181895 11.596443 -17.150325 -3.741249 -0.757819 32.147262 -3.980519 -0.194572 53.773932 4.451032 12.626873 -25.671901 46.577237 -8.349642 13.889679 7.523951 -2.196611 
